<?xml version="1.0" standalone="no"?>
<!DOCTYPE svg PUBLIC "-//W3C//DTD SVG 20010904//EN"
 "http://www.w3.org/TR/2001/REC-SVG-20010904/DTD/svg10.dtd">
<svg version="1.0" xmlns="http://www.w3.org/2000/svg"
 width="192.000000pt" height="192.000000pt" viewBox="0 0 192.000000 192.000000"
 preserveAspectRatio="xMidYMid meet">
<metadata>
Created by potrace 1.14, written by Peter Selinger 2001-2017
</metadata>
<g transform="translate(0.000000,192.000000) scale(0.100000,-0.100000)"
fill="#000000" stroke="none">
<path d="M728 1498 l-228 -132 0 -263 c0 -145 2 -263 4 -263 2 0 58 32 124 70
66 39 126 70 134 70 7 0 51 -22 98 -50 47 -27 90 -50 97 -50 6 0 53 24 104 54
l93 53 46 -27 c25 -15 84 -50 133 -79 l87 -51 0 269 0 268 -217 126 c-120 69
-225 128 -233 131 -9 4 -110 -49 -242 -126z m390 -265 l32 -17 0 -114 c0 -62
-4 -112 -8 -110 -4 2 -47 25 -95 52 l-87 50 0 113 0 114 63 -36 c34 -20 77
-43 95 -52z"/>
<path d="M700 755 l0 -35 -70 0 -70 0 0 -75 c0 -73 1 -75 24 -75 23 0 25 5 28
48 l3 47 113 3 c111 3 112 2 112 -20 -1 -68 -82 -164 -160 -187 l-40 -12 17
-24 c10 -13 23 -24 28 -24 20 -1 91 37 124 65 61 51 124 223 90 245 -8 5 -42
9 -76 9 l-63 0 0 35 c0 32 -2 35 -30 35 -28 0 -30 -3 -30 -35z"/>
<path d="M1068 663 c-5 -110 -23 -170 -62 -202 -21 -18 -20 -28 5 -42 17 -9
25 -7 44 11 42 39 62 106 70 228 l7 112 -30 0 -29 0 -5 -107z"/>
<path d="M1190 601 c0 -200 4 -210 73 -173 44 23 137 99 137 110 0 4 -7 16
-15 26 -14 18 -16 17 -59 -22 -73 -67 -76 -63 -76 93 l0 135 -30 0 -30 0 0
-169z"/>
</g>
</svg>
